<svg xmlns="http://www.w3.org/2000/svg" aria-hidden="true" style="position:absolute;width:0;height:0;overflow:hidden">
  <defs>
    <symbol id="icon-chocolate" viewBox="0 0 31 32">
      <path fill="#fcf1e0" d="M3.765 19.89 14.052 3.258l.611-.643 7.862 5.242.054 3.163 1.919 3.13-8.476 13.437-12.256-7.696z" style="fill:var(--color1, #fcf1e0)"/>
      <path fill="none" stroke="#fd9222" stroke-linecap="round" stroke-linejoin="round" stroke-width="2.618" d="M20.651 23.521 7.11 15.06m3.734-6.125 13.541 8.461m-14.238 8.02L21.349 7.041m4.592 7.803c-2.902-1.813-4.041-3.23-2.174-6.293l-9.188-5.742L3.377 21.184l13.541 8.461 9.024-14.802z" style="stroke:var(--color2, #fd9222)"/>
    </symbol>
    <symbol id="twitter" viewBox="0 0 768 768"><path d="M666.656 168.384c-5.952 7.744-12.512 15.2-19.712 22.272-7.456 7.424-11.104 18.144-8.896 29.056 1.184 5.824 1.92 12.928 1.952 20.288 0 168.192-77.728 287.072-185.92 348.736-84.704 48.288-190.016 62.56-295.104 35.84 39.84-11.552 78.72-29.472 114.976-54.080 4.704-3.168 8.736-7.776 11.264-13.472 7.168-16.16-0.096-35.072-16.256-42.24-88.768-39.456-132.16-93.792-152.608-146.976-13.344-34.688-17.472-70.336-16.64-103.264 0.672-25.952 4.416-49.92 8.896-69.824 12.608 10.976 25.696 22.592 39.52 33.216 65.632 50.464 147.968 79.328 236.64 77.024 17.376-0.48 31.232-14.624 31.232-32v-32.352c-0.064-5.728 0.288-11.424 1.088-17.056 3.616-25.792 16.128-50.208 37.184-68.512 23.2-20.192 52.352-29.056 80.832-27.072s56.096 14.816 76.288 38.016c8.064 9.152 20.768 13.312 33.056 9.728 7.392-2.144 14.816-4.576 22.24-7.296zM717.568 69.856c-23.68 16.704-48.736 29.632-73.184 38.56-29.792-26.752-66.912-41.664-104.832-44.32-44.736-3.104-90.752 10.848-127.264 42.624-33.152 28.832-52.864 67.456-58.56 107.904-1.184 8.48-1.76 17.024-1.728 25.6-61.504-4.544-118.176-27.2-164.8-63.040-24.8-19.072-46.784-41.888-65.088-67.712-10.24-14.4-30.208-17.824-44.608-7.584-4.928 3.488-8.544 8.096-10.72 13.088 0 0-4.224 9.568-9.12 24.32-3.584 10.784-7.712 24.8-11.424 41.28-5.216 23.104-9.664 51.264-10.432 82.272-0.992 39.264 3.84 83.584 20.864 127.872 21.856 56.8 62.912 111.296 132.704 154.336-50.208 23.232-103.84 33.248-155.936 30.944-17.664-0.768-32.608 12.896-33.376 30.56-0.544 12.448 6.080 23.552 16.416 29.376 156.96 87.2 333.632 85.696 469.312 8.352 129.28-73.632 218.208-214.4 218.208-404.288-0.032-5.344-0.256-10.56-0.736-15.648 32.192-35.68 53.632-77.728 63.872-120.992 4.064-17.184-6.592-34.432-23.776-38.496-9.28-2.208-18.56-0.096-25.824 4.992z" /></symbol>
    <symbol id="icon-instagram" viewBox="0 0 32 32">
      <path d="M31.969 9.408c-.075-1.7-.35-2.869-.744-3.882a7.803 7.803 0 0 0-1.85-2.838A7.867 7.867 0 0 0 26.543.844C25.524.45 24.361.175 22.661.1 20.948.019 20.404 0 16.06 0s-4.888.019-6.595.094c-1.7.075-2.869.35-3.882.744a7.803 7.803 0 0 0-2.838 1.85A7.867 7.867 0 0 0 .901 5.52C.507 6.539.232 7.702.157 9.402c-.081 1.713-.1 2.257-.1 6.601s.019 4.888.094 6.595c.075 1.7.35 2.869.744 3.882a7.895 7.895 0 0 0 1.85 2.838 7.867 7.867 0 0 0 2.832 1.844c1.019.394 2.182.669 3.882.744 1.706.075 2.25.094 6.595.094s4.888-.018 6.595-.094c1.7-.075 2.869-.35 3.882-.744a8.181 8.181 0 0 0 4.682-4.682c.394-1.019.669-2.182.744-3.882.075-1.707.094-2.251.094-6.595s-.006-4.888-.081-6.595zm-2.882 13.065c-.069 1.563-.331 2.407-.55 2.969a5.307 5.307 0 0 1-3.038 3.038c-.563.219-1.413.481-2.969.55-1.688.075-2.194.094-6.464.094s-4.782-.018-6.464-.094c-1.563-.069-2.407-.331-2.969-.55a4.926 4.926 0 0 1-1.838-1.194 4.974 4.974 0 0 1-1.194-1.838c-.219-.563-.481-1.413-.55-2.969-.075-1.688-.094-2.194-.094-6.464s.019-4.782.094-6.464c.069-1.563.331-2.407.55-2.969a4.868 4.868 0 0 1 1.2-1.838A4.974 4.974 0 0 1 6.639 3.55c.563-.219 1.413-.481 2.969-.55 1.688-.075 2.194-.094 6.464-.094 4.276 0 4.782.019 6.464.094 1.563.069 2.407.331 2.969.55a4.914 4.914 0 0 1 1.838 1.194 4.974 4.974 0 0 1 1.194 1.838c.219.563.481 1.413.55 2.969.075 1.688.094 2.194.094 6.464s-.019 4.77-.094 6.457z"/>
      <path d="M16.059 7.782c-4.538 0-8.22 3.682-8.22 8.22s3.682 8.22 8.22 8.22 8.22-3.682 8.22-8.22-3.682-8.22-8.22-8.22zm0 13.553a5.333 5.333 0 0 1 0-10.664 5.333 5.333 0 0 1 0 10.664zM26.524 7.457a1.919 1.919 0 1 1-3.838 0 1.919 1.919 0 0 1 3.838 0z"/>
    </symbol>
    <symbol id="icon-x" viewBox="0 0 32 32">
      <path fill="none" stroke="#fff" stroke-linecap="round" stroke-linejoin="round" stroke-width="2.286" d="M22.667 9.333 9.334 22.666M9.333 9.333l13.333 13.333" style="stroke:var(--color1, #fff)"/>
    </symbol>
    <symbol id="x-close" viewBox="0 0 28 28"><path stroke="#111" stroke-linecap="round" stroke-linejoin="round" stroke-width="2" d="M21 7 7 21M7 7l14 14"/></symbol>
    <symbol id="icon-hamburger" viewBox="0 0 20 20">
      <path fill-rule="evenodd" d="M3 5a1 1 0 011-1h12a1 1 0 110 2H4a1 1 0 01-1-1zM3 10a1 1 0 011-1h12a1 1 0 110 2H4a1 1 0 01-1-1zM3 15a1 1 0 011-1h12a1 1 0 110 2H4a1 1 0 01-1-1z" clip-rule="evenodd"/>
    </symbol>
    <symbol id="flag-ua" viewBox="0 0 41 32">
      <path fill="gold" d="M40.745 1.355H.311v30.09h40.434V1.355z" style="fill:var(--color1, #ffd700)"/>
      <path fill="#0057b7" d="M.311 1.355h40.434V16.4H.311V1.355z" style="fill:var(--color2, #0057b7)"/>
    </symbol>
    <symbol id="mastercard" viewBox="0 0 51 32">
      <path fill="#ed0006" d="M25.6 26.935a14.53 14.53 0 0 1-9.496 3.518c-8.086 0-14.641-6.593-14.641-14.726S8.018 1.001 16.104 1.001c3.624 0 6.94 1.324 9.496 3.518a14.532 14.532 0 0 1 9.497-3.518c8.086 0 14.64 6.593 14.64 14.726s-6.555 14.726-14.64 14.726c-3.624 0-6.94-1.324-9.497-3.518z" style="fill:var(--color1, #ed0006)"/>
      <path fill="#f9a000" d="M25.6 26.935c3.148-2.701 5.144-6.72 5.144-11.209S28.748 7.219 25.6 4.518A14.53 14.53 0 0 1 35.097 1c8.086 0 14.64 6.593 14.64 14.726s-6.555 14.726-14.64 14.726c-3.624 0-6.94-1.324-9.497-3.518z" style="fill:var(--color2, #f9a000)"/>
      <path fill="#ff5e00" d="M25.6 26.935c3.148-2.701 5.144-6.72 5.144-11.208S28.748 7.22 25.6 4.519c-3.148 2.701-5.144 6.72-5.144 11.208s1.996 8.507 5.144 11.208z" style="fill:var(--color3, #ff5e00)"/>
    </symbol>
  </defs>
</svg>
